# xmcd
#
# Track frame offsets:
#	150
#	14370
#	27674
#	41681
#	53705
#	66244
#	78338
#	90185
#	99987
#	111137
#
# Disc length: 1630 seconds
#
# Revision: 1
# Processed by: cddbd v1.5.2PL0 Copyright (c) Steve Scherf et al.
# Submitted via: EasyCDDAExtractor 7.1.2.1
#
DISCID=74065c0a
DTITLE=Conway Twitty - The Legend Disc 2 of 2
DYEAR=2003
DGENRE=Country
TTITLE0=You've Never Been This Far Before
TTITLE1=After All The Good Is Gone
TTITLE2=Fifteen Years Ago
TTITLE3=I Can't Se Me Without You
TTITLE4=I've Hurt Her More Than She Loves Me
TTITLE5=She Needs Someone To Hold Her When She Cries
TTITLE6=To See MY Angel Cry
TTITLE7=I'll Try
TTITLE8=It's Only Make Believe
TTITLE9=As Soon As I Hang Up The Phone
EXTD=
EXTT0=
EXTT1=
EXTT2=
EXTT3=
EXTT4=
EXTT5=
EXTT6=
EXTT7=
EXTT8=
EXTT9=
PLAYORDER=
